<mxfile host="app.diagrams.net" modified="2024-03-04T08:56:25.562Z" agent="Mozilla/5.0 (Macintosh; Intel Mac OS X 10_15_7) AppleWebKit/537.36 (KHTML, like Gecko) Chrome/121.0.0.0 Safari/537.36" version="21.3.7" etag="xbz8k4AOgt8Fd0jI5-xN" type="github">
  <diagram name="第 1 页" id="05Td6KHlXMD_EVtnvfii">
    <mxGraphModel>
      <root>
        <mxCell id="0" />
        <mxCell id="1" parent="0" />
      </root>
    </mxGraphModel>
  </diagram>
</mxfile>
